# xmcd
#
# Track frame offsets:
#	150
#	12720
#	22299
#	34275
#	45624
#	55818
#	68419
#	80969
#	95094
#	103521
#
# Disc length: 1490 seconds
#
# Revision: 0
# Processed by: cddbd v1.5.1PL2 Copyright (c) Steve Scherf et al.
# Submitted via: EasyCDDAExtractor 9.0.0.1
#
DISCID=8a05d00a
DTITLE=Danny Davis - Country Gold
DYEAR=2003
DGENRE=Country
TTITLE0=Thank God I'm A Country Boy
TTITLE1=Before The Next Teardrop Falls
TTITLE2=Let Me Be There
TTITLE3=The Seeker
TTITLE4=I Honestly Love You
TTITLE5=Satin Sheets
TTITLE6=Another Somebody Done Somebody Wrong Song
TTITLE7=Please Mr Please
TTITLE8=Brass Buckles
TTITLE9=Kiss An Angel Good Morning
EXTD=
EXTT0=
EXTT1=
EXTT2=
EXTT3=
EXTT4=
EXTT5=
EXTT6=
EXTT7=
EXTT8=
EXTT9=
PLAYORDER=
